<svg xmlns="http://www.w3.org/2000/svg" width="24" height="21.563" viewBox="0 0 24 21.563">
  <g id="chats" transform="translate(0 0)">
    <path id="Path_23" data-name="Path 23" d="M246.469,100a.469.469,0,1,0,.469.469A.469.469,0,0,0,246.469,100Zm0,0" transform="translate(-234.469 -95.313)" fill="#fff"/>
    <path id="Path_24" data-name="Path 24" d="M80.469,260.938a.469.469,0,1,0-.469-.469A.469.469,0,0,0,80.469,260.938Zm0,0" transform="translate(-76.25 -247.813)" fill="#fff"/>
    <path id="Path_25" data-name="Path 25" d="M15.75,0C11.53,0,8.066,2.909,7.8,6.574c-4.019.2-7.8,3.1-7.8,7.019a6.55,6.55,0,0,0,1.828,4.483,2.851,2.851,0,0,1-.753,2.686.469.469,0,0,0,.331.8,5.171,5.171,0,0,0,3.582-1.448,10.682,10.682,0,0,0,3.261.51c4.219,0,7.683-2.909,7.951-6.573a10.54,10.54,0,0,0,2.81-.5A5.171,5.171,0,0,0,22.594,15a.469.469,0,0,0,.331-.8,2.851,2.851,0,0,1-.753-2.686A6.55,6.55,0,0,0,24,7.031C24,2.958,19.929,0,15.75,0ZM8.25,19.687a9.476,9.476,0,0,1-3.211-.553.469.469,0,0,0-.519.119,4.23,4.23,0,0,1-2.1,1.248,3.791,3.791,0,0,0,.286-2.79.468.468,0,0,0-.115-.2,5.633,5.633,0,0,1-1.649-3.92C.938,10.29,4.286,7.5,8.25,7.5c3.743,0,7.031,2.6,7.031,6.094,0,3.36-3.154,6.094-7.031,6.094Zm13.163-8.736a.47.47,0,0,0-.115.2,3.791,3.791,0,0,0,.286,2.79,4.228,4.228,0,0,1-2.1-1.248.469.469,0,0,0-.519-.119,9.234,9.234,0,0,1-2.762.541,6.71,6.71,0,0,0-2.533-4.676h6.114a.469.469,0,0,0,0-.937H12.227a8.742,8.742,0,0,0-3.489-.924C9.008,3.428,12.05.937,15.75.937c3.964,0,7.312,2.791,7.312,6.094a5.633,5.633,0,0,1-1.649,3.92Zm0,0" fill="#fff"/>
    <path id="Path_26" data-name="Path 26" d="M126.375,260h-5.906a.469.469,0,0,0,0,.938h5.906a.469.469,0,0,0,0-.937Zm0,0" transform="translate(-114.375 -247.813)" fill="#fff"/>
    <path id="Path_27" data-name="Path 27" d="M88.25,320H80.469a.469.469,0,0,0,0,.938H88.25a.469.469,0,0,0,0-.937Zm0,0" transform="translate(-76.25 -305)" fill="#fff"/>
    <path id="Path_28" data-name="Path 28" d="M292.375,100h-5.906a.469.469,0,0,0,0,.938h5.906a.469.469,0,0,0,0-.937Zm0,0" transform="translate(-272.594 -95.313)" fill="#fff"/>
  </g>
</svg>
