<svg xmlns="http://www.w3.org/2000/svg" width="24" height="21" viewBox="0 0 24 21">
  <g id="coffee-cup" transform="translate(0 -32.001)">
    <g id="Group_2" data-name="Group 2" transform="translate(2.999 40)">
      <g id="Group_1" data-name="Group 1" transform="translate(0 0)">
        <path id="Path_3" data-name="Path 3" d="M79.488,202.654h-14a1.5,1.5,0,0,0-1.5,1.5v1a9.477,9.477,0,0,0,5.143,8.445.5.5,0,1,0,.459-.889,8.479,8.479,0,0,1-4.6-7.556v-1a.5.5,0,0,1,.5-.5h14a.5.5,0,0,1,.5.5v1a8.475,8.475,0,0,1-4.6,7.555.5.5,0,0,0,.23.945.493.493,0,0,0,.229-.056,9.472,9.472,0,0,0,5.144-8.444v-1A1.5,1.5,0,0,0,79.488,202.654Z" transform="translate(-63.988 -202.654)" fill="#fff"/>
      </g>
    </g>
    <g id="Group_4" data-name="Group 4" transform="translate(0 49.999)">
      <g id="Group_3" data-name="Group 3">
        <path id="Path_4" data-name="Path 4" d="M22.963,416.275a.5.5,0,0,0-.462-.309H.5a.5.5,0,0,0-.354.854l1.121,1.122a3.479,3.479,0,0,0,2.475,1.025H19.257a3.485,3.485,0,0,0,2.477-1.025l1.121-1.122A.5.5,0,0,0,22.963,416.275Zm-1.937.96a2.486,2.486,0,0,1-1.768.732H3.742a2.486,2.486,0,0,1-1.768-.732l-.268-.268H21.294Z" transform="translate(0 -415.966)" fill="#fff"/>
      </g>
    </g>
    <g id="Group_6" data-name="Group 6" transform="translate(16.645 41.998)">
      <g id="Group_5" data-name="Group 5" transform="translate(0 0)">
        <path id="Path_5" data-name="Path 5" d="M361.481,245.635c-1.347-.866-3.5.074-3.74.183a.5.5,0,1,0,.415.911c.482-.219,2.028-.738,2.784-.251a1.421,1.421,0,0,1,.508,1.3c0,2-4.038,3.212-5.6,3.51l-.354.07a.5.5,0,0,0,.1.99.465.465,0,0,0,.1-.01l.351-.069c.262-.05,6.407-1.255,6.407-4.491A2.359,2.359,0,0,0,361.481,245.635Z" transform="translate(-355.093 -245.272)" fill="#fff"/>
      </g>
    </g>
    <g id="Group_8" data-name="Group 8" transform="translate(14 32.001)">
      <g id="Group_7" data-name="Group 7">
        <path id="Path_6" data-name="Path 6" d="M300.059,35.812a3,3,0,0,0,0-3.623.5.5,0,0,0-.781.625,2.017,2.017,0,0,1,0,2.375,2.993,2.993,0,0,0,0,3.623.5.5,0,1,0,.781-.625A2.014,2.014,0,0,1,300.059,35.812Z" transform="translate(-298.666 -32.001)" fill="#fff"/>
      </g>
    </g>
    <g id="Group_10" data-name="Group 10" transform="translate(10.997 32.001)">
      <g id="Group_9" data-name="Group 9" transform="translate(0 0)">
        <path id="Path_7" data-name="Path 7" d="M235.989,35.82a2.993,2.993,0,0,0,0-3.623.5.5,0,0,0-.781.625,2.014,2.014,0,0,1,0,2.375,3,3,0,0,0,0,3.623.5.5,0,0,0,.781-.625A2.017,2.017,0,0,1,235.989,35.82Z" transform="translate(-234.597 -32.009)" fill="#fff"/>
      </g>
    </g>
    <g id="Group_12" data-name="Group 12" transform="translate(8 32.002)">
      <g id="Group_11" data-name="Group 11" transform="translate(0 0)">
        <path id="Path_8" data-name="Path 8" d="M172.059,35.833a3,3,0,0,0,0-3.623.5.5,0,0,0-.781.624,2.017,2.017,0,0,1,0,2.375,2.993,2.993,0,0,0,0,3.623.5.5,0,1,0,.781-.624A2.014,2.014,0,0,1,172.059,35.833Z" transform="translate(-170.666 -32.022)" fill="#fff"/>
      </g>
    </g>
  </g>
</svg>
