<svg id="information" xmlns="http://www.w3.org/2000/svg" width="24" height="24" viewBox="0 0 24 24">
  <path id="Path_18" data-name="Path 18" d="M12,0A12,12,0,1,0,24,12,12.014,12.014,0,0,0,12,0Zm0,21.818A9.818,9.818,0,1,1,21.818,12,9.829,9.829,0,0,1,12,21.818Z" fill="#fff"/>
  <path id="Path_19" data-name="Path 19" d="M146.456,70a1.455,1.455,0,1,0,1.454,1.455A1.456,1.456,0,0,0,146.456,70Z" transform="translate(-134.456 -64.909)" fill="#fff"/>
  <path id="Path_20" data-name="Path 20" d="M151.091,140A1.091,1.091,0,0,0,150,141.091v6.545a1.091,1.091,0,0,0,2.182,0v-6.545A1.091,1.091,0,0,0,151.091,140Z" transform="translate(-139.091 -129.818)" fill="#fff"/>
</svg>
