<svg xmlns="http://www.w3.org/2000/svg" width="14.807" height="22.584" viewBox="0 0 14.807 22.584">
  <g id="lightbulb" transform="translate(-40.584 -6.205)">
    <g id="Group_14" data-name="Group 14" transform="translate(35.966)">
      <g id="Group_13" data-name="Group 13" transform="translate(0)">
        <path id="Path_9" data-name="Path 9" d="M112.733,93.2a7.415,7.415,0,0,0-4.9,12.97c1.172,1.172,1.065,3.675,1.039,3.7a.441.441,0,0,0,.133.346.491.491,0,0,0,.32.133h6.791a.441.441,0,0,0,.32-.133.506.506,0,0,0,.133-.346c0-.027-.133-2.53,1.039-3.7l.08-.08a7.392,7.392,0,0,0-4.954-12.89Zm4.261,12.277c-.027.027-.08.08-.08.107a6.219,6.219,0,0,0-1.252,3.835h-5.886a6.189,6.189,0,0,0-1.332-3.942,6.485,6.485,0,1,1,8.549,0Z" transform="translate(-100.711 -86.995)" fill="#fff"/>
        <path id="Path_10" data-name="Path 10" d="M209.782,121.6a.453.453,0,1,0,0,.905,4.848,4.848,0,0,1,4.847,4.847.453.453,0,0,0,.905,0A5.729,5.729,0,0,0,209.782,121.6Z" transform="translate(-197.786 -113.504)" fill="#fff"/>
        <path id="Path_11" data-name="Path 11" d="M161.96,358.4h-5.912a1.119,1.119,0,1,0,0,2.237h5.886a1.149,1.149,0,0,0,1.145-1.119A1.125,1.125,0,0,0,161.96,358.4Zm0,1.3h-5.912a.21.21,0,0,1-.213-.213.2.2,0,0,1,.213-.213h5.886a.21.21,0,0,1,.213.213A.19.19,0,0,1,161.96,359.7Z" transform="translate(-147.008 -334.538)" fill="#fff"/>
        <path id="Path_12" data-name="Path 12" d="M173.4,398.8h-4.155a1.119,1.119,0,1,0,0,2.237H173.4a1.125,1.125,0,0,0,1.119-1.119A1.108,1.108,0,0,0,173.4,398.8Zm0,1.3h-4.155a.21.21,0,0,1-.213-.213.2.2,0,0,1,.213-.213H173.4a.213.213,0,0,1,0,.426Z" transform="translate(-159.33 -372.248)" fill="#fff"/>
      </g>
    </g>
  </g>
</svg>
